<svg width="1080" height="581" viewBox="0 0 1080 581" fill="none" xmlns="http://www.w3.org/2000/svg">
<g clip-path="url(#clip0_81_7543)">
<path d="M88.1118 110.397H146.631L248.378 358.833H252.123L353.869 110.397H412.389V429.993H366.509V198.723H363.544L269.289 429.524H231.212L136.956 198.567H133.991V429.993H88.1118V110.397Z" fill="#800020"/>
<path d="M739.558 413.606H744.831V418H649.032V413.606H654.745C662.069 413.606 668.368 411.115 673.641 406.135C679.207 400.862 682.283 394.417 682.869 386.799V272.544H512.805V387.239C512.805 428.254 502.844 455.792 482.922 469.854C473.841 476.3 462.122 481.133 447.767 484.356L445.57 480.401C458.753 473.37 468.421 462.53 474.573 447.882C481.018 433.234 484.241 413.02 484.241 387.239V142.029C484.241 134.412 481.458 127.967 475.891 122.694C470.325 117.421 463.733 114.784 456.116 114.784H450.843V110.389H546.642V114.784H540.929C533.312 114.784 526.72 117.421 521.154 122.694C515.881 127.967 513.098 134.412 512.805 142.029V259.361H682.869V149.939C683.162 112.44 691.512 86.3665 707.918 71.7184C717.878 62.9295 731.355 56.6308 748.346 52.8223L750.544 56.7773C737.36 63.8084 727.546 74.648 721.101 89.2961C714.656 103.944 711.433 124.159 711.433 149.939V385.921C711.433 393.538 714.07 400.129 719.343 405.696C724.909 410.969 731.648 413.606 739.558 413.606Z" fill="#800020"/>
<path d="M952.715 194.009C951.051 179.236 944.184 167.792 932.116 159.677C920.048 151.459 904.859 147.349 886.549 147.349C873.441 147.349 862.101 149.43 852.53 153.591C842.958 157.649 835.52 163.267 830.214 170.445C825.012 177.519 822.412 185.582 822.412 194.633C822.412 202.228 824.18 208.782 827.717 214.296C831.359 219.81 836.092 224.439 841.918 228.184C847.848 231.826 854.194 234.895 860.957 237.392C867.719 239.784 874.221 241.761 880.463 243.322L911.674 251.436C921.869 253.933 932.324 257.314 943.04 261.58C953.756 265.845 963.691 271.463 972.846 278.433C982.001 285.404 989.388 294.039 995.006 304.338C1000.73 314.637 1003.59 326.966 1003.59 341.322C1003.59 359.425 998.907 375.498 989.544 389.543C980.285 403.587 966.812 414.667 949.126 422.782C931.544 430.897 910.269 434.954 885.301 434.954C861.373 434.954 840.67 431.157 823.192 423.562C805.714 415.968 792.033 405.2 782.15 391.259C772.267 377.215 766.805 360.569 765.765 341.322H814.141C815.077 352.87 818.822 362.494 825.377 370.192C832.035 377.787 840.514 383.457 850.813 387.202C861.217 390.843 872.608 392.664 884.989 392.664C898.617 392.664 910.737 390.531 921.349 386.266C932.064 381.896 940.491 375.862 946.629 368.163C952.767 360.361 955.836 351.258 955.836 340.854C955.836 331.387 953.131 323.637 947.722 317.602C942.416 311.568 935.185 306.575 926.03 302.621C916.979 298.668 906.732 295.183 895.288 292.166L857.523 281.866C831.931 274.896 811.644 264.649 796.663 251.124C781.786 237.6 774.347 219.706 774.347 197.442C774.347 179.028 779.341 162.954 789.328 149.222C799.316 135.489 812.84 124.826 829.902 117.231C846.964 109.533 866.21 105.683 887.641 105.683C909.281 105.683 928.371 109.481 944.913 117.075C961.558 124.67 974.667 135.125 984.238 148.442C993.809 161.654 998.803 176.843 999.219 194.009H952.715Z" fill="#800020"/>
<rect x="547.374" y="144.636" width="34.7893" height="32.8566" fill="#800020"/>
<rect x="613.29" y="144.636" width="34.7893" height="32.8566" fill="#800020"/>
<rect x="547.374" y="203.229" width="34.7893" height="32.8566" fill="#800020"/>
<rect x="613.29" y="203.229" width="34.7893" height="32.8566" fill="#800020"/>
</g>
<defs>
<clipPath id="clip0_81_7543">
<rect width="1080" height="581" fill="white"/>
</clipPath>
</defs>
</svg>
