<?xml version="1.0" encoding="utf-8"?>
<!-- Generator: Adobe Illustrator 27.8.0, SVG Export Plug-In . SVG Version: 6.00 Build 0)  -->
<svg version="1.1" id="Layer_1" xmlns="http://www.w3.org/2000/svg" xmlns:xlink="http://www.w3.org/1999/xlink" x="0px" y="0px"
	 viewBox="0 0 1080 1080" style="enable-background:new 0 0 1080 1080;" xml:space="preserve">
<style type="text/css">
	.st0{font-family:'Livvic-SemiBold';}
	.st1{font-size:23.3555px;}
	.st2{letter-spacing:11;}
</style>
<g>
	<g>
		<g>
			<path d="M666.87,373.12c-2.35,6.99,2.51,13.25,3,13.95c0.49-0.7,5.43-6.96,3.12-13.94C672.03,370.22,667.85,370.21,666.87,373.12
				z"/>
		</g>
	</g>
	<g>
		<g>
			<path d="M684.26,377.82c-1.61,7.19-9.02,10.03-9.8,10.37c-0.06-0.85-1.04-8.76,4.56-13.54
				C681.35,372.66,684.93,374.82,684.26,377.82z"/>
		</g>
	</g>
	<g>
		<g>
			<path d="M691.6,387.06c-4.62,5.75-12.51,5.03-13.37,5c0.32-0.79,2.93-8.32,10.05-10.14C691.26,381.15,693.52,384.67,691.6,387.06
				z"/>
		</g>
	</g>
	<g>
		<g>
			<path d="M693.39,398.78c-6.8,2.84-13.4-1.57-14.13-2.01c0.66-0.54,6.55-5.91,13.68-4.09
				C695.92,393.43,696.22,397.6,693.39,398.78z"/>
		</g>
	</g>
	<g>
		<g>
			<path d="M655.14,377.82c1.61,7.19,9.02,10.03,9.8,10.37c0.06-0.85,1.04-8.76-4.56-13.54
				C658.05,372.66,654.47,374.82,655.14,377.82z"/>
		</g>
	</g>
	<g>
		<g>
			<path d="M647.8,387.06c4.61,5.75,12.51,5.03,13.37,5c-0.32-0.79-2.93-8.32-10.05-10.14C648.14,381.15,645.88,384.67,647.8,387.06
				z"/>
		</g>
	</g>
	<g>
		<g>
			<path d="M646.01,398.78c6.8,2.84,13.4-1.57,14.13-2.01c-0.66-0.54-6.55-5.91-13.68-4.09
				C643.48,393.43,643.18,397.6,646.01,398.78z"/>
		</g>
	</g>
	<g>
		<path d="M669.83,403.49c-3.91,0-7.08-3.18-7.08-7.08c0-3.91,3.18-7.08,7.08-7.08c3.9,0,7.08,3.18,7.08,7.08
			C676.91,400.31,673.73,403.49,669.83,403.49z M669.83,390.61c-3.19,0-5.79,2.6-5.79,5.79c0,3.19,2.6,5.79,5.79,5.79
			c3.19,0,5.79-2.6,5.79-5.79C675.62,393.21,673.02,390.61,669.83,390.61z"/>
	</g>
	<g>
		<g>
			<path d="M588.64,410.51L588.64,410.51c-0.04,0.03-5.65,4.16-9.02,4.05c0,0,0.68,0.67,1.68,0.99c-1.64,1.36-1.96,3.55-2.01,3.81
				c0.27-0.04,2.49-0.27,3.92-1.88c0.25,1.07,0.93,1.83,0.93,1.83C584.2,415.95,588.6,410.55,588.64,410.51L588.64,410.51
				L588.64,410.51L588.64,410.51z"/>
		</g>
		<g>
			<path d="M563.06,404.97c3.64,0.19,7.32-0.04,10.96-0.41c3.64-0.37,7.25-0.86,10.81-1.27c3.56-0.43,7.06-0.75,10.46-1.02
				c6.79-0.52,13.16-0.57,18.62-0.4c2.73,0.06,5.23,0.19,7.44,0.31c2.21,0.14,4.14,0.28,5.73,0.42c1.59,0.12,2.84,0.25,3.69,0.33
				c0.85,0.08,1.3,0.12,1.3,0.12s-0.45-0.06-1.3-0.18c-0.85-0.11-2.09-0.3-3.67-0.49c-1.58-0.2-3.51-0.4-5.72-0.61
				c-2.21-0.2-4.71-0.42-7.45-0.56c-5.47-0.28-11.87-0.36-18.71,0.02c-3.42,0.18-6.95,0.5-10.52,0.89
				c-3.57,0.37-7.19,0.83-10.8,1.19c-3.61,0.35-7.22,0.56-10.76,0.36c-1.77-0.09-3.5-0.28-5.13-0.73c-1.63-0.44-3.15-1.15-4.35-2.21
				c-1.21-1.04-2.11-2.4-2.61-3.86c-0.25-0.73-0.4-1.48-0.42-2.22c-0.01-0.37,0-0.74,0.04-1.11c0.02-0.2,0.05-0.39,0.08-0.56
				c0.03-0.18,0.06-0.35,0.11-0.53c0.33-1.42,1.12-2.66,2.26-3.41c1.13-0.77,2.49-1.1,3.8-1.22c0.66-0.06,1.31-0.06,1.95-0.03
				l0.12,0.01l0.11,0.01l0.24,0.02c0.16,0.01,0.29,0.04,0.44,0.06c1.75,0.44,4.61,3.42-0.03,4.74c-4.63,1.32-1.55,3.61-1.55,3.61
				c0.2,0.07,0.39,0.12,0.58,0.16c-0.1-0.02-0.19-0.04-0.27-0.06c-0.21-0.07-0.32-0.1-0.32-0.1s0.11,0.04,0.31,0.13
				c0.21,0.07,0.53,0.16,0.96,0.19c0.43,0.03,0.97-0.02,1.58-0.22c0.6-0.2,1.25-0.56,1.85-1.13c0.59-0.56,1.15-1.33,1.41-2.31
				c0.13-0.49,0.17-1.02,0.08-1.59c-0.09-0.53-0.3-1.09-0.61-1.59c-0.62-1.01-1.67-1.81-2.89-2.28c-0.31-0.12-0.63-0.21-0.96-0.29
				c-0.17-0.03-0.35-0.07-0.51-0.09l-0.24-0.03l-0.13-0.01l-0.12-0.01c-0.67-0.05-1.35-0.06-2.06-0.02c-1.4,0.09-2.91,0.4-4.26,1.26
				c-1.36,0.84-2.37,2.32-2.78,3.94c-0.06,0.2-0.11,0.41-0.14,0.62c-0.05,0.22-0.07,0.41-0.1,0.61c-0.06,0.41-0.08,0.85-0.07,1.28
				c0.02,0.86,0.17,1.73,0.44,2.56c0.54,1.66,1.53,3.21,2.9,4.42c1.37,1.21,3.07,2.02,4.83,2.5
				C559.42,404.66,561.25,404.87,563.06,404.97z M559.18,396.46c-0.15-0.01-0.28-0.03-0.39-0.05
				C558.92,396.44,559.05,396.45,559.18,396.46z"/>
		</g>
		<g>
			<path d="M663.34,395.97c-0.1-0.42-0.2-0.73-0.26-0.94c-0.07-0.21-0.1-0.32-0.1-0.32s0.02,0.11,0.06,0.33
				c0.04,0.22,0.09,0.54,0.14,0.96c0.09,0.83,0.22,2.1-0.13,3.61c-0.19,0.74-0.5,1.54-1.02,2.28c-0.52,0.74-1.26,1.41-2.17,1.92
				c-0.91,0.52-1.99,0.89-3.16,1.12c-0.58,0.12-1.19,0.21-1.81,0.24c-0.65,0.02-1.31,0.07-1.98,0.1c-2.7,0.11-5.64,0.07-8.74-0.09
				c-3.1-0.16-6.37-0.47-9.75-0.84c-6.76-0.74-13.99-1.72-21.3-1.98c-1.83-0.06-3.65-0.07-5.48-0.02c-1.81,0.06-3.64,0.14-5.45,0.41
				c-1.8,0.27-3.6,0.73-5.24,1.56c-0.81,0.41-1.6,0.94-2.27,1.52c-0.69,0.6-1.29,1.28-1.79,2.01c-1.02,1.47-1.65,3.16-1.78,4.89
				c-0.02,0.21-0.03,0.43-0.03,0.65v0.33l0.02,0.3c0.01,0.11,0.01,0.19,0.02,0.32l0.04,0.31c0.02,0.21,0.06,0.41,0.1,0.62
				c0.16,0.82,0.42,1.62,0.82,2.35c0.39,0.73,0.93,1.37,1.54,1.89c0.62,0.51,1.32,0.91,2.03,1.18c1.44,0.55,2.92,0.69,4.3,0.66
				c0.34-0.01,0.69-0.03,1.03-0.05c0.34-0.03,0.69-0.08,1.02-0.15c0.66-0.15,1.28-0.39,1.85-0.7c1.13-0.62,2.02-1.54,2.48-2.62
				c0.23-0.51,0.37-1.08,0.37-1.62c0-0.54-0.11-1.06-0.28-1.52c-0.35-0.93-0.94-1.64-1.56-2.17c-1.25-1.05-2.6-1.29-3.44-1.22
				c-0.22,0.02-0.42,0.05-0.58,0.09c-0.25,0.05-0.48,0.12-0.68,0.23c0,0-2.19,1.66,0.61,2.6c2.82,0.95,7.79,4.24,1.16,6.38
				c-0.01,0-0.03,0.01-0.04,0.01c-0.61,0.12-1.26,0.13-1.94,0.13c-1.33-0.02-2.73-0.17-4.04-0.71c-0.65-0.26-1.27-0.63-1.81-1.09
				c-0.53-0.47-0.99-1.04-1.33-1.69c-0.34-0.65-0.56-1.38-0.69-2.13c-0.04-0.19-0.06-0.38-0.08-0.57l-0.03-0.29l-0.01-0.29
				l-0.01-0.3l0.01-0.28c0-0.19,0.01-0.38,0.04-0.57c0.15-1.55,0.75-3.09,1.7-4.4c0.47-0.66,1.03-1.26,1.66-1.79
				c0.65-0.54,1.33-0.97,2.09-1.34c1.51-0.73,3.19-1.16,4.92-1.4c1.74-0.25,3.52-0.31,5.32-0.35c1.79-0.03,3.6-0.01,5.4,0.07
				c7.23,0.28,14.42,1.31,21.21,2.02c3.39,0.36,6.69,0.66,9.82,0.81c3.14,0.16,6.11,0.16,8.86,0.03c0.69-0.04,1.36-0.09,2.01-0.13
				c0.68-0.06,1.34-0.17,1.96-0.32c1.26-0.31,2.41-0.79,3.39-1.42c0.98-0.63,1.77-1.43,2.31-2.29c0.54-0.86,0.82-1.76,0.93-2.58
				C663.78,398.07,663.53,396.8,663.34,395.97z"/>
		</g>
		<g>
			<path d="M593.17,405.12c1.42-0.63,2.24-0.98,2.24-0.98s-0.84,0.28-2.31,0.78c-1.47,0.51-3.57,1.23-6.09,2.1
				c-2.51,0.88-5.44,1.91-8.58,3.01c-1.57,0.54-3.2,1.1-4.85,1.67c-1.65,0.56-3.34,1.11-5.01,1.59c-0.42,0.12-0.82,0.22-1.22,0.28
				c-0.44,0.07-0.87,0.13-1.3,0.18c-0.85,0.1-1.69,0.13-2.51,0.08c-0.82-0.05-1.62-0.2-2.37-0.46c-0.37-0.13-0.73-0.29-1.08-0.47
				c-0.34-0.19-0.67-0.39-0.94-0.63c-1.07-0.91-1.61-2.49-1.47-3.78c0.06-0.63,0.39-1.19,0.84-1.6c0.46-0.42,1.02-0.65,1.6-0.7
				c0.57-0.05,1.15,0.1,1.64,0.35c0.21,0.11,0.41,0.24,0.59,0.39c1.02,1.24-0.5,1.35-1.6,2.37c-1.17,1.08,0.34,1.55,0.34,1.55
				c0.11,0.02,0.21,0.03,0.32,0.04c-0.06,0-0.11,0-0.15-0.01c-0.11-0.02-0.16-0.03-0.16-0.03s0.05,0.02,0.16,0.04
				c0.11,0.03,0.27,0.05,0.48,0.05c0.41,0,1.09-0.18,1.63-0.82c0.27-0.33,0.46-0.77,0.48-1.29c0.01-0.51-0.13-1.06-0.42-1.57
				c-0.57-1.01-1.79-1.89-3.32-1.91c-0.75-0.01-1.56,0.28-2.19,0.8c-0.64,0.51-1.15,1.29-1.29,2.18c-0.12,0.88-0.02,1.74,0.26,2.59
				c0.29,0.84,0.76,1.64,1.49,2.3c1.43,1.19,3.26,1.77,5.1,1.9c0.92,0.06,1.85,0.01,2.75-0.1c0.45-0.06,0.9-0.13,1.33-0.2
				c0.48-0.08,0.94-0.2,1.37-0.32c1.74-0.5,3.41-1.11,5.06-1.7c1.65-0.6,3.26-1.2,4.81-1.8c3.11-1.19,5.99-2.36,8.46-3.37
				C589.7,406.61,591.75,405.74,593.17,405.12z"/>
		</g>
	</g>
	<g>
		<g>
			<path d="M751.11,410.8L751.11,410.8c0.04,0.03,5.65,4.16,9.02,4.05c0,0-0.68,0.67-1.68,0.99c1.64,1.36,1.96,3.55,2.01,3.81
				c-0.27-0.04-2.49-0.27-3.92-1.88c-0.25,1.06-0.93,1.83-0.93,1.83C755.55,416.24,751.15,410.84,751.11,410.8L751.11,410.8
				L751.11,410.8L751.11,410.8z"/>
		</g>
		<g>
			<path d="M782.08,404.46c1.76-0.48,3.46-1.28,4.83-2.5c1.36-1.21,2.35-2.76,2.9-4.42c0.27-0.83,0.42-1.7,0.44-2.56
				c0.01-0.43-0.01-0.86-0.07-1.28c-0.02-0.19-0.05-0.39-0.1-0.61c-0.04-0.21-0.08-0.42-0.14-0.62c-0.41-1.61-1.41-3.1-2.78-3.94
				c-1.35-0.86-2.86-1.17-4.26-1.26c-0.71-0.04-1.39-0.03-2.06,0.02l-0.13,0.01l-0.13,0.01l-0.24,0.03
				c-0.16,0.02-0.34,0.06-0.51,0.09c-0.33,0.08-0.65,0.17-0.96,0.29c-1.23,0.47-2.27,1.27-2.89,2.28c-0.31,0.5-0.53,1.05-0.61,1.59
				c-0.09,0.57-0.05,1.1,0.08,1.59c0.26,0.99,0.82,1.75,1.41,2.31c0.6,0.56,1.25,0.92,1.85,1.13c0.6,0.2,1.15,0.25,1.58,0.22
				c0.43-0.03,0.75-0.12,0.96-0.19c0.2-0.08,0.31-0.13,0.31-0.13s-0.11,0.04-0.32,0.1c-0.07,0.02-0.17,0.04-0.27,0.06
				c0.19-0.04,0.39-0.09,0.58-0.16c0,0,3.09-2.29-1.55-3.61c-4.64-1.32-1.78-4.3-0.03-4.74c0.15-0.02,0.28-0.05,0.44-0.06l0.24-0.02
				l0.11-0.01l0.12-0.01c0.64-0.03,1.29-0.03,1.95,0.03c1.31,0.12,2.67,0.46,3.8,1.22c1.14,0.75,1.93,1.98,2.25,3.41
				c0.05,0.18,0.08,0.36,0.11,0.53c0.04,0.17,0.06,0.36,0.08,0.56c0.05,0.37,0.06,0.74,0.05,1.11c-0.02,0.75-0.17,1.5-0.42,2.22
				c-0.5,1.45-1.4,2.82-2.61,3.86c-1.2,1.05-2.72,1.77-4.35,2.21c-1.63,0.44-3.37,0.63-5.13,0.73c-3.53,0.2-7.15-0.01-10.76-0.36
				c-3.61-0.36-7.23-0.82-10.8-1.19c-3.57-0.38-7.1-0.71-10.52-0.89c-6.84-0.38-13.24-0.3-18.71-0.02
				c-2.73,0.14-5.23,0.36-7.45,0.56c-2.21,0.21-4.14,0.42-5.72,0.61c-1.59,0.18-2.82,0.37-3.67,0.49c-0.85,0.12-1.3,0.18-1.3,0.18
				s0.45-0.04,1.3-0.12c0.85-0.08,2.1-0.2,3.69-0.33c1.59-0.14,3.52-0.28,5.73-0.42c2.22-0.13,4.71-0.25,7.44-0.31
				c5.45-0.17,11.82-0.11,18.62,0.4c3.4,0.27,6.9,0.59,10.45,1.02c3.56,0.42,7.17,0.91,10.81,1.27c3.64,0.37,7.32,0.6,10.96,0.41
				C778.5,405.15,780.32,404.95,782.08,404.46z M780.96,396.7c-0.12,0.02-0.24,0.04-0.39,0.05
				C780.7,396.74,780.83,396.72,780.96,396.7z"/>
		</g>
		<g>
			<path d="M676.4,396.26c0.1-0.42,0.2-0.73,0.26-0.94c0.07-0.21,0.1-0.32,0.1-0.32s-0.02,0.11-0.06,0.33
				c-0.04,0.22-0.09,0.54-0.14,0.96c-0.09,0.83-0.22,2.1,0.13,3.61c0.19,0.74,0.5,1.54,1.02,2.28c0.52,0.74,1.26,1.41,2.17,1.92
				c0.91,0.52,1.99,0.89,3.16,1.12c0.58,0.12,1.19,0.21,1.81,0.24c0.65,0.02,1.31,0.06,1.98,0.1c2.7,0.11,5.64,0.07,8.74-0.09
				c3.1-0.16,6.37-0.47,9.75-0.84c6.76-0.74,13.99-1.72,21.3-1.98c1.83-0.06,3.65-0.07,5.48-0.01c1.81,0.06,3.64,0.14,5.45,0.41
				c1.8,0.27,3.6,0.73,5.24,1.56c0.81,0.41,1.6,0.94,2.27,1.52c0.69,0.6,1.29,1.28,1.8,2.01c1.02,1.47,1.65,3.17,1.78,4.89
				c0.02,0.21,0.03,0.43,0.03,0.65l0,0.33l-0.02,0.3c-0.01,0.11-0.01,0.19-0.02,0.32l-0.04,0.31c-0.02,0.21-0.06,0.41-0.1,0.62
				c-0.16,0.82-0.42,1.62-0.82,2.35c-0.39,0.73-0.93,1.37-1.54,1.89c-0.62,0.51-1.32,0.91-2.03,1.18c-1.44,0.55-2.92,0.69-4.3,0.66
				c-0.35-0.01-0.69-0.03-1.03-0.05c-0.34-0.03-0.69-0.08-1.02-0.15c-0.66-0.15-1.28-0.39-1.85-0.7c-1.13-0.62-2.02-1.54-2.49-2.62
				c-0.22-0.51-0.37-1.08-0.36-1.62c0-0.54,0.1-1.06,0.28-1.52c0.35-0.93,0.94-1.64,1.56-2.17c1.25-1.05,2.6-1.29,3.44-1.22
				c0.23,0.02,0.42,0.05,0.58,0.09c0.25,0.05,0.48,0.12,0.68,0.23c0,0,2.19,1.66-0.61,2.6c-2.82,0.95-7.79,4.24-1.16,6.38
				c0.01,0,0.03,0.01,0.04,0.01c0.61,0.12,1.26,0.13,1.94,0.13c1.33-0.02,2.73-0.17,4.04-0.7c0.65-0.26,1.27-0.63,1.81-1.09
				c0.53-0.47,0.99-1.04,1.33-1.69c0.34-0.65,0.56-1.38,0.69-2.13c0.04-0.19,0.07-0.38,0.08-0.57l0.03-0.29l0.01-0.29l0.02-0.3
				l-0.01-0.28c0-0.19-0.01-0.38-0.04-0.57c-0.15-1.55-0.75-3.09-1.7-4.4c-0.47-0.66-1.03-1.26-1.66-1.79
				c-0.65-0.54-1.33-0.97-2.09-1.34c-1.51-0.73-3.19-1.16-4.92-1.4c-1.74-0.25-3.51-0.31-5.32-0.35c-1.79-0.03-3.6-0.01-5.4,0.07
				c-7.23,0.28-14.42,1.31-21.21,2.02c-3.39,0.36-6.69,0.66-9.82,0.81c-3.14,0.17-6.11,0.16-8.86,0.03
				c-0.68-0.04-1.36-0.09-2.01-0.13c-0.68-0.06-1.34-0.17-1.96-0.32c-1.25-0.31-2.41-0.79-3.39-1.42c-0.98-0.63-1.77-1.43-2.31-2.29
				c-0.54-0.86-0.82-1.76-0.93-2.58C675.97,398.36,676.21,397.09,676.4,396.26z"/>
		</g>
		<g>
			<path d="M746.57,405.41c-1.42-0.63-2.24-0.98-2.24-0.98s0.84,0.28,2.31,0.78c1.47,0.51,3.57,1.23,6.09,2.1
				c2.51,0.88,5.44,1.91,8.59,3.01c1.57,0.54,3.19,1.1,4.84,1.67c1.65,0.56,3.34,1.11,5.01,1.59c0.42,0.12,0.83,0.22,1.22,0.28
				c0.44,0.07,0.87,0.13,1.3,0.18c0.85,0.1,1.69,0.13,2.51,0.08c0.82-0.05,1.62-0.2,2.37-0.46c0.37-0.13,0.73-0.29,1.07-0.47
				c0.34-0.19,0.67-0.39,0.94-0.63c1.07-0.91,1.61-2.49,1.47-3.78c-0.06-0.63-0.39-1.19-0.84-1.6c-0.46-0.42-1.02-0.65-1.6-0.7
				c-0.57-0.05-1.15,0.1-1.64,0.35c-0.21,0.11-0.41,0.25-0.59,0.39c-1.02,1.24,0.5,1.35,1.6,2.37c1.17,1.08-0.34,1.55-0.34,1.55
				c-0.11,0.02-0.21,0.03-0.32,0.04c0.06,0,0.11,0,0.15-0.01c0.11-0.02,0.16-0.03,0.16-0.03s-0.05,0.01-0.16,0.04
				c-0.11,0.03-0.27,0.05-0.48,0.05c-0.41,0-1.09-0.18-1.62-0.82c-0.27-0.33-0.46-0.77-0.48-1.29c-0.01-0.51,0.13-1.06,0.42-1.57
				c0.57-1.01,1.79-1.89,3.32-1.91c0.75-0.01,1.55,0.29,2.19,0.8c0.64,0.51,1.15,1.29,1.29,2.18c0.12,0.88,0.02,1.74-0.26,2.59
				c-0.29,0.84-0.76,1.64-1.48,2.3c-1.43,1.19-3.26,1.77-5.1,1.9c-0.92,0.06-1.85,0.01-2.75-0.1c-0.45-0.06-0.9-0.13-1.33-0.2
				c-0.48-0.08-0.94-0.2-1.37-0.32c-1.74-0.5-3.41-1.11-5.06-1.7c-1.65-0.6-3.26-1.2-4.81-1.8c-3.11-1.19-5.99-2.36-8.46-3.37
				C750.04,406.89,748,406.03,746.57,405.41z"/>
		</g>
	</g>
</g>
<g>
	<g>
		<g>
			<path d="M435.91,679.62c2.35-6.99-2.51-13.25-3-13.95c-0.49,0.7-5.43,6.96-3.12,13.94C430.75,682.52,434.93,682.53,435.91,679.62
				z"/>
		</g>
	</g>
	<g>
		<g>
			<path d="M418.53,674.92c1.61-7.19,9.02-10.03,9.8-10.37c0.06,0.85,1.04,8.76-4.56,13.54
				C421.43,680.08,417.86,677.92,418.53,674.92z"/>
		</g>
	</g>
	<g>
		<g>
			<path d="M411.18,665.68c4.62-5.75,12.51-5.03,13.37-5c-0.32,0.79-2.93,8.32-10.05,10.14
				C411.52,671.58,409.26,668.07,411.18,665.68z"/>
		</g>
	</g>
	<g>
		<g>
			<path d="M409.39,653.96c6.8-2.84,13.4,1.57,14.13,2.01c-0.66,0.54-6.55,5.91-13.68,4.09
				C406.86,659.31,406.56,655.14,409.39,653.96z"/>
		</g>
	</g>
	<g>
		<g>
			<path d="M447.64,674.92c-1.61-7.19-9.02-10.03-9.8-10.37c-0.06,0.85-1.04,8.76,4.56,13.54
				C444.73,680.08,448.31,677.92,447.64,674.92z"/>
		</g>
	</g>
	<g>
		<g>
			<path d="M454.98,665.68c-4.61-5.75-12.51-5.03-13.37-5c0.32,0.79,2.93,8.32,10.05,10.14
				C454.64,671.58,456.9,668.07,454.98,665.68z"/>
		</g>
	</g>
	<g>
		<g>
			<path d="M456.77,653.96c-6.8-2.84-13.4,1.57-14.13,2.01c0.66,0.54,6.55,5.91,13.68,4.09C459.3,659.31,459.6,655.14,456.77,653.96
				z"/>
		</g>
	</g>
	<g>
		<path d="M432.95,649.25c3.91,0,7.08,3.18,7.08,7.08c0,3.91-3.18,7.08-7.08,7.08c-3.9,0-7.08-3.18-7.08-7.08
			C425.87,652.43,429.05,649.25,432.95,649.25z M432.95,662.13c3.19,0,5.79-2.6,5.79-5.79c0-3.19-2.6-5.79-5.79-5.79
			c-3.19,0-5.79,2.6-5.79,5.79C427.17,659.53,429.76,662.13,432.95,662.13z"/>
	</g>
	<g>
		<g>
			<path d="M514.15,642.23L514.15,642.23c0.04-0.03,5.65-4.16,9.02-4.05c0,0-0.68-0.67-1.68-0.99c1.64-1.36,1.96-3.55,2.01-3.81
				c-0.27,0.04-2.49,0.27-3.92,1.88c-0.25-1.07-0.93-1.83-0.93-1.83C518.59,636.79,514.18,642.18,514.15,642.23L514.15,642.23
				L514.15,642.23L514.15,642.23z"/>
		</g>
		<g>
			<path d="M539.73,647.77c-3.64-0.19-7.32,0.04-10.96,0.41c-3.64,0.37-7.25,0.86-10.81,1.27c-3.56,0.43-7.06,0.75-10.46,1.02
				c-6.79,0.52-13.16,0.57-18.62,0.4c-2.73-0.06-5.23-0.19-7.44-0.31c-2.21-0.14-4.14-0.28-5.73-0.42
				c-1.59-0.12-2.84-0.25-3.69-0.33c-0.85-0.08-1.3-0.12-1.3-0.12s0.45,0.06,1.3,0.18c0.85,0.11,2.08,0.3,3.67,0.49
				c1.58,0.2,3.51,0.4,5.72,0.61c2.21,0.2,4.71,0.42,7.45,0.56c5.47,0.28,11.87,0.36,18.71-0.02c3.42-0.18,6.95-0.5,10.52-0.89
				c3.57-0.37,7.19-0.83,10.8-1.19c3.61-0.35,7.22-0.56,10.76-0.36c1.77,0.09,3.5,0.28,5.13,0.73c1.63,0.44,3.15,1.15,4.35,2.21
				c1.21,1.04,2.11,2.4,2.61,3.86c0.25,0.73,0.4,1.48,0.42,2.22c0.01,0.37,0,0.74-0.04,1.11c-0.02,0.2-0.05,0.39-0.08,0.56
				c-0.03,0.18-0.06,0.35-0.11,0.53c-0.33,1.42-1.12,2.66-2.26,3.41c-1.13,0.77-2.49,1.1-3.8,1.22c-0.66,0.06-1.31,0.06-1.95,0.03
				l-0.12-0.01l-0.11-0.01l-0.24-0.02c-0.16-0.01-0.29-0.04-0.44-0.06c-1.75-0.44-4.61-3.42,0.03-4.74
				c4.63-1.32,1.55-3.61,1.55-3.61c-0.2-0.07-0.39-0.12-0.58-0.16c0.1,0.02,0.19,0.04,0.27,0.06c0.21,0.07,0.32,0.1,0.32,0.1
				s-0.11-0.04-0.31-0.13c-0.21-0.07-0.53-0.16-0.96-0.19c-0.43-0.03-0.97,0.02-1.58,0.22c-0.6,0.2-1.25,0.56-1.85,1.13
				c-0.59,0.56-1.15,1.33-1.41,2.31c-0.13,0.49-0.17,1.02-0.08,1.59c0.09,0.53,0.3,1.09,0.61,1.59c0.62,1.01,1.67,1.81,2.89,2.28
				c0.31,0.12,0.63,0.21,0.96,0.29c0.17,0.03,0.35,0.07,0.51,0.09l0.24,0.03l0.13,0.01l0.12,0.01c0.67,0.05,1.35,0.07,2.06,0.02
				c1.4-0.09,2.91-0.4,4.26-1.26c1.36-0.84,2.37-2.32,2.78-3.94c0.06-0.2,0.11-0.41,0.14-0.62c0.05-0.22,0.07-0.41,0.1-0.61
				c0.06-0.41,0.08-0.85,0.07-1.28c-0.02-0.86-0.17-1.73-0.44-2.56c-0.54-1.66-1.53-3.21-2.9-4.42c-1.37-1.21-3.07-2.02-4.83-2.5
				C543.36,648.08,541.53,647.87,539.73,647.77z M543.6,656.28c0.15,0.01,0.28,0.03,0.39,0.05
				C543.87,656.3,543.74,656.29,543.6,656.28z"/>
		</g>
		<g>
			<path d="M439.44,656.77c0.1,0.42,0.2,0.73,0.26,0.94c0.07,0.21,0.1,0.32,0.1,0.32s-0.02-0.11-0.06-0.33
				c-0.04-0.22-0.09-0.54-0.14-0.96c-0.09-0.83-0.22-2.1,0.13-3.61c0.19-0.74,0.5-1.54,1.02-2.28c0.52-0.74,1.26-1.41,2.17-1.92
				c0.91-0.52,1.99-0.89,3.16-1.12c0.58-0.12,1.19-0.21,1.81-0.24c0.65-0.02,1.31-0.07,1.98-0.1c2.7-0.11,5.64-0.07,8.74,0.09
				c3.1,0.16,6.37,0.47,9.75,0.84c6.76,0.74,13.99,1.72,21.3,1.98c1.83,0.06,3.65,0.07,5.48,0.02c1.81-0.06,3.64-0.14,5.45-0.41
				c1.8-0.27,3.6-0.73,5.24-1.56c0.81-0.41,1.6-0.94,2.27-1.52c0.69-0.6,1.29-1.28,1.79-2.01c1.02-1.47,1.65-3.16,1.78-4.89
				c0.02-0.21,0.03-0.43,0.03-0.65v-0.33l-0.02-0.3c-0.01-0.11-0.01-0.19-0.02-0.32l-0.04-0.31c-0.02-0.21-0.06-0.41-0.1-0.62
				c-0.16-0.82-0.42-1.62-0.82-2.35c-0.39-0.73-0.93-1.37-1.54-1.89c-0.62-0.51-1.32-0.91-2.03-1.18c-1.44-0.55-2.92-0.69-4.3-0.66
				c-0.34,0.01-0.69,0.03-1.03,0.05c-0.34,0.03-0.69,0.08-1.02,0.15c-0.66,0.15-1.28,0.39-1.85,0.7c-1.13,0.62-2.02,1.54-2.49,2.62
				c-0.23,0.51-0.37,1.08-0.37,1.62c0,0.54,0.11,1.06,0.28,1.52c0.35,0.93,0.94,1.64,1.56,2.17c1.25,1.05,2.6,1.29,3.44,1.22
				c0.22-0.02,0.42-0.05,0.58-0.09c0.25-0.05,0.48-0.12,0.68-0.23c0,0,2.19-1.66-0.61-2.6c-2.82-0.95-7.79-4.24-1.16-6.38
				c0.01,0,0.03-0.01,0.04-0.01c0.61-0.12,1.26-0.13,1.94-0.13c1.33,0.02,2.73,0.17,4.04,0.71c0.65,0.26,1.27,0.63,1.81,1.09
				c0.53,0.47,0.99,1.04,1.33,1.69c0.34,0.65,0.56,1.38,0.69,2.13c0.04,0.19,0.06,0.38,0.08,0.57l0.03,0.29l0.01,0.29l0.01,0.3
				l-0.01,0.28c0,0.19-0.01,0.38-0.04,0.57c-0.15,1.55-0.75,3.09-1.7,4.4c-0.47,0.66-1.03,1.26-1.66,1.79
				c-0.65,0.54-1.33,0.97-2.09,1.34c-1.51,0.73-3.19,1.16-4.92,1.4c-1.74,0.25-3.52,0.31-5.32,0.35c-1.79,0.03-3.6,0.01-5.4-0.07
				c-7.23-0.28-14.42-1.31-21.21-2.02c-3.39-0.36-6.69-0.66-9.82-0.81c-3.14-0.16-6.11-0.16-8.86-0.03
				c-0.69,0.04-1.36,0.09-2.01,0.13c-0.68,0.06-1.34,0.17-1.96,0.32c-1.26,0.31-2.41,0.79-3.39,1.42c-0.98,0.63-1.77,1.43-2.31,2.29
				c-0.54,0.86-0.82,1.76-0.93,2.58C439,654.67,439.25,655.94,439.44,656.77z"/>
		</g>
		<g>
			<path d="M509.61,647.62c-1.42,0.63-2.24,0.98-2.24,0.98s0.84-0.28,2.31-0.78c1.47-0.51,3.57-1.23,6.09-2.1
				c2.51-0.88,5.44-1.91,8.58-3.01c1.57-0.54,3.2-1.1,4.85-1.67c1.65-0.56,3.34-1.11,5.01-1.59c0.42-0.12,0.82-0.22,1.22-0.28
				c0.44-0.07,0.87-0.13,1.3-0.18c0.85-0.1,1.69-0.13,2.51-0.08c0.82,0.05,1.62,0.2,2.37,0.46c0.37,0.13,0.73,0.29,1.08,0.47
				c0.34,0.19,0.67,0.39,0.94,0.63c1.07,0.91,1.61,2.49,1.47,3.78c-0.06,0.63-0.39,1.19-0.84,1.6c-0.46,0.42-1.02,0.65-1.6,0.7
				c-0.57,0.05-1.15-0.09-1.64-0.35c-0.21-0.11-0.41-0.24-0.59-0.39c-1.02-1.24,0.5-1.35,1.6-2.37c1.17-1.08-0.34-1.55-0.34-1.55
				c-0.11-0.02-0.21-0.03-0.32-0.04c0.06,0,0.11,0,0.15,0.01c0.11,0.02,0.16,0.03,0.16,0.03s-0.05-0.02-0.16-0.04
				c-0.11-0.03-0.27-0.05-0.48-0.05c-0.41,0-1.09,0.18-1.63,0.82c-0.27,0.33-0.46,0.77-0.48,1.29c-0.01,0.51,0.13,1.06,0.42,1.57
				c0.57,1.01,1.79,1.89,3.32,1.91c0.75,0.01,1.56-0.28,2.19-0.8c0.64-0.51,1.15-1.29,1.29-2.18c0.12-0.88,0.02-1.74-0.26-2.59
				c-0.29-0.84-0.76-1.64-1.49-2.3c-1.43-1.19-3.26-1.77-5.1-1.9c-0.92-0.06-1.85-0.01-2.75,0.1c-0.45,0.06-0.9,0.13-1.33,0.2
				c-0.48,0.08-0.94,0.2-1.37,0.32c-1.74,0.5-3.41,1.11-5.06,1.7c-1.65,0.6-3.26,1.2-4.81,1.8c-3.11,1.19-5.99,2.36-8.46,3.37
				C513.08,646.13,511.04,647,509.61,647.62z"/>
		</g>
	</g>
	<g>
		<g>
			<path d="M351.67,641.94L351.67,641.94c-0.04-0.03-5.65-4.16-9.02-4.05c0,0,0.68-0.67,1.68-0.99c-1.64-1.36-1.96-3.55-2.01-3.81
				c0.27,0.04,2.49,0.27,3.92,1.88c0.25-1.06,0.93-1.83,0.93-1.83C347.23,636.5,351.64,641.9,351.67,641.94L351.67,641.94
				L351.67,641.94L351.67,641.94z"/>
		</g>
		<g>
			<path d="M320.7,648.28c-1.76,0.48-3.46,1.28-4.83,2.5c-1.36,1.21-2.35,2.76-2.9,4.42c-0.27,0.83-0.42,1.7-0.44,2.56
				c-0.01,0.43,0.01,0.86,0.07,1.28c0.02,0.19,0.05,0.39,0.1,0.61c0.04,0.21,0.08,0.42,0.14,0.62c0.41,1.61,1.41,3.1,2.78,3.94
				c1.35,0.86,2.86,1.17,4.26,1.26c0.71,0.04,1.39,0.03,2.06-0.02l0.13-0.01l0.13-0.01l0.24-0.03c0.16-0.02,0.34-0.06,0.51-0.09
				c0.33-0.08,0.65-0.17,0.96-0.29c1.23-0.47,2.27-1.27,2.89-2.28c0.31-0.5,0.53-1.05,0.61-1.59c0.09-0.57,0.05-1.1-0.08-1.59
				c-0.26-0.99-0.82-1.75-1.41-2.31c-0.6-0.56-1.25-0.92-1.85-1.13c-0.6-0.2-1.15-0.25-1.58-0.22c-0.43,0.03-0.75,0.12-0.96,0.19
				c-0.2,0.08-0.31,0.13-0.31,0.13s0.11-0.04,0.32-0.1c0.07-0.02,0.17-0.04,0.27-0.06c-0.19,0.04-0.39,0.09-0.58,0.16
				c0,0-3.09,2.29,1.55,3.61c4.64,1.32,1.78,4.3,0.03,4.74c-0.15,0.02-0.28,0.05-0.44,0.06l-0.24,0.02l-0.11,0.01l-0.12,0.01
				c-0.64,0.03-1.29,0.03-1.95-0.03c-1.31-0.12-2.67-0.46-3.8-1.22c-1.14-0.75-1.93-1.99-2.25-3.41c-0.05-0.18-0.08-0.36-0.11-0.53
				c-0.04-0.17-0.06-0.36-0.08-0.56c-0.05-0.37-0.06-0.74-0.05-1.11c0.02-0.75,0.17-1.5,0.42-2.22c0.5-1.45,1.4-2.82,2.61-3.86
				c1.2-1.05,2.72-1.77,4.35-2.21c1.63-0.44,3.37-0.63,5.13-0.73c3.53-0.2,7.15,0.01,10.76,0.36c3.61,0.36,7.23,0.82,10.8,1.19
				c3.57,0.38,7.1,0.71,10.52,0.89c6.84,0.38,13.24,0.3,18.71,0.02c2.73-0.14,5.23-0.36,7.45-0.56c2.21-0.21,4.14-0.42,5.72-0.61
				c1.59-0.18,2.82-0.37,3.67-0.49c0.85-0.12,1.3-0.18,1.3-0.18s-0.45,0.04-1.3,0.12c-0.85,0.08-2.1,0.2-3.69,0.33
				c-1.59,0.14-3.52,0.28-5.73,0.42c-2.22,0.13-4.71,0.25-7.44,0.31c-5.45,0.17-11.82,0.11-18.62-0.41
				c-3.4-0.27-6.9-0.59-10.45-1.02c-3.56-0.42-7.17-0.91-10.81-1.27c-3.64-0.37-7.32-0.6-10.96-0.41
				C324.28,647.59,322.46,647.79,320.7,648.28z M321.82,656.04c0.12-0.02,0.24-0.04,0.39-0.05
				C322.09,656,321.96,656.02,321.82,656.04z"/>
		</g>
		<g>
			<path d="M426.38,656.48c-0.1,0.42-0.2,0.73-0.26,0.94c-0.07,0.21-0.1,0.32-0.1,0.32s0.02-0.11,0.06-0.33
				c0.04-0.22,0.09-0.54,0.14-0.96c0.09-0.83,0.22-2.1-0.13-3.61c-0.19-0.74-0.5-1.54-1.02-2.28c-0.52-0.74-1.26-1.41-2.17-1.92
				c-0.91-0.52-1.99-0.89-3.16-1.12c-0.58-0.12-1.19-0.21-1.81-0.24c-0.65-0.02-1.31-0.06-1.98-0.1c-2.7-0.11-5.64-0.07-8.74,0.09
				c-3.1,0.16-6.37,0.47-9.75,0.84c-6.76,0.74-13.99,1.72-21.3,1.98c-1.83,0.06-3.65,0.07-5.48,0.01c-1.81-0.06-3.64-0.14-5.45-0.41
				c-1.8-0.27-3.6-0.73-5.24-1.56c-0.81-0.41-1.6-0.94-2.27-1.52c-0.69-0.6-1.29-1.28-1.8-2.01c-1.01-1.47-1.65-3.17-1.78-4.89
				c-0.02-0.21-0.03-0.43-0.03-0.65l0-0.33l0.02-0.3c0.01-0.11,0.01-0.19,0.02-0.32l0.04-0.31c0.02-0.21,0.06-0.41,0.1-0.62
				c0.16-0.82,0.42-1.62,0.82-2.35c0.39-0.73,0.93-1.37,1.54-1.89c0.62-0.51,1.32-0.91,2.03-1.18c1.44-0.55,2.92-0.69,4.3-0.66
				c0.35,0.01,0.69,0.03,1.03,0.05c0.34,0.03,0.69,0.08,1.02,0.15c0.66,0.15,1.28,0.39,1.85,0.7c1.13,0.62,2.02,1.54,2.49,2.62
				c0.22,0.51,0.37,1.08,0.36,1.62c0,0.54-0.1,1.06-0.28,1.52c-0.35,0.93-0.95,1.64-1.56,2.17c-1.25,1.05-2.6,1.29-3.44,1.22
				c-0.23-0.02-0.42-0.05-0.58-0.09c-0.25-0.05-0.48-0.12-0.68-0.23c0,0-2.19-1.66,0.61-2.6c2.82-0.95,7.79-4.24,1.16-6.38
				c-0.01,0-0.03-0.01-0.04-0.01c-0.61-0.12-1.26-0.13-1.94-0.13c-1.33,0.02-2.73,0.17-4.04,0.7c-0.65,0.26-1.27,0.63-1.81,1.09
				c-0.53,0.47-0.99,1.04-1.33,1.69c-0.34,0.65-0.56,1.38-0.69,2.13c-0.04,0.19-0.07,0.38-0.08,0.57l-0.03,0.29l-0.01,0.29
				l-0.02,0.3l0.01,0.28c0,0.19,0.01,0.38,0.04,0.57c0.15,1.55,0.75,3.09,1.7,4.4c0.47,0.66,1.03,1.26,1.66,1.79
				c0.65,0.54,1.33,0.97,2.09,1.34c1.51,0.73,3.19,1.16,4.92,1.4c1.74,0.25,3.51,0.31,5.32,0.35c1.79,0.03,3.6,0.01,5.4-0.07
				c7.23-0.28,14.42-1.31,21.21-2.02c3.39-0.36,6.69-0.66,9.82-0.81c3.14-0.17,6.11-0.16,8.86-0.03c0.68,0.04,1.36,0.09,2.01,0.13
				c0.68,0.06,1.34,0.17,1.96,0.32c1.25,0.31,2.41,0.79,3.39,1.42c0.98,0.63,1.77,1.43,2.31,2.29c0.54,0.86,0.82,1.76,0.93,2.58
				C426.82,654.38,426.57,655.65,426.38,656.48z"/>
		</g>
		<g>
			<path d="M356.21,647.33c1.42,0.63,2.24,0.98,2.24,0.98s-0.84-0.28-2.31-0.78c-1.47-0.51-3.57-1.23-6.09-2.1
				c-2.51-0.88-5.44-1.91-8.59-3.01c-1.57-0.54-3.19-1.1-4.84-1.67c-1.65-0.56-3.34-1.11-5.01-1.59c-0.42-0.12-0.83-0.22-1.22-0.28
				c-0.44-0.07-0.87-0.13-1.3-0.18c-0.85-0.1-1.69-0.13-2.51-0.08c-0.82,0.05-1.62,0.2-2.37,0.46c-0.37,0.13-0.73,0.29-1.07,0.47
				c-0.34,0.19-0.67,0.39-0.94,0.63c-1.07,0.91-1.61,2.48-1.47,3.78c0.06,0.63,0.39,1.19,0.84,1.6c0.46,0.42,1.02,0.65,1.6,0.7
				c0.57,0.05,1.15-0.1,1.64-0.35c0.21-0.11,0.41-0.25,0.59-0.39c1.02-1.24-0.5-1.35-1.6-2.37c-1.17-1.08,0.34-1.55,0.34-1.55
				c0.11-0.02,0.21-0.03,0.32-0.04c-0.06,0-0.11,0-0.15,0.01c-0.11,0.02-0.16,0.03-0.16,0.03s0.05-0.01,0.16-0.04
				c0.11-0.03,0.27-0.05,0.48-0.05c0.41,0,1.09,0.18,1.62,0.82c0.27,0.33,0.46,0.77,0.48,1.29c0.01,0.51-0.13,1.06-0.42,1.57
				c-0.57,1.01-1.79,1.89-3.32,1.91c-0.75,0.01-1.55-0.29-2.19-0.8c-0.64-0.51-1.15-1.29-1.29-2.18c-0.12-0.88-0.02-1.74,0.26-2.59
				c0.29-0.84,0.76-1.64,1.48-2.3c1.43-1.19,3.26-1.77,5.1-1.9c0.92-0.06,1.85-0.01,2.75,0.1c0.45,0.06,0.9,0.13,1.33,0.2
				c0.48,0.08,0.94,0.2,1.37,0.32c1.74,0.5,3.41,1.11,5.06,1.7c1.65,0.6,3.26,1.2,4.81,1.8c3.11,1.19,5.99,2.36,8.46,3.37
				C352.74,645.85,354.78,646.71,356.21,647.33z"/>
		</g>
	</g>
</g>
<g>
	<path d="M598.96,474c3.71,3.52,5.57,7.82,5.57,12.9v10.88h19.06V486.9c0.19-5.08,2.1-9.38,5.72-12.9
		c3.61-3.52,7.96-5.28,13.05-5.28h3.81v-2.93h-63.92v2.93h3.52C590.85,468.72,595.25,470.48,598.96,474z"/>
	<polygon points="490.72,497.77 517.56,437.13 525.87,497.77 546,497.77 529.29,391.39 526.65,391.39 479.19,497.77 	"/>
	<path d="M756.11,497.77v-5.6c0-17.2,2.15-30.68,6.45-40.46c4.3-9.77,10.85-17.01,19.64-21.7l-1.47-2.64
		c-11.34,2.54-20.33,6.74-26.97,12.61c-10.95,9.78-16.52,27.17-16.71,52.19v5.6H756.11z"/>
	<path d="M357.92,594.28c-2.45-2.54-3.47-5.47-3.08-8.8l4.86-54.91h-14.09l-5.73,49.64c-0.98,5.28-3.47,9.53-7.48,12.75
		c-4.01,3.22-8.65,4.84-13.93,4.84h-4.69v2.93h56.88v-2.64h-4.69C363.05,598.09,360.36,596.82,357.92,594.28z"/>
	<path d="M464.56,530.57l-16.78,37.62l-17.37-37.62h-20.9l34.16,74.26h2.93c1.17-8.01,4.49-17.98,9.97-29.91l19.63-44.36H464.56z"/>
	<path d="M358.36,420.12l-8.96,77.65h13.21l5.14-58.01l26.68,58.01h20.85l-38.15-82.63c-3.13-6.45-7.33-13.19-12.61-20.23
		c-3.13-3.91-6.45-7.48-9.97-10.7c-3.52-3.23-7.62-6.35-12.31-9.38c-4.69-3.03-9.68-5.32-14.95-6.89
		c-5.28-1.56-9.87-2.49-13.78-2.79c-3.91-0.29-7.52-0.44-10.85-0.44c-3.32,0-7.62,0.69-12.9,2.05v2.93
		c2.35-0.19,4.59-0.29,6.74-0.29C320.54,369.4,341.16,386.31,358.36,420.12z"/>
	<path d="M761.54,662.66c-3.62-3.62-5.42-7.96-5.42-13.05V530.57h-19.06v34.61H623.59v-34.61h-19.06v111.94
		c-7.77-3.51-14.92-8.63-21.45-15.39c-13.59-14.07-22.43-34.79-26.53-62.16l-5.4-34.39h-20.78l5.08,37.03
		c3.52,26.2,13.49,47.5,29.91,63.92c8.01,8.01,16.95,13.49,26.83,16.42c4.44,1.32,8.54,2.32,12.35,3.05
		c-0.04,16.97-2.14,30.29-6.3,39.97c-4.21,9.77-10.7,17.01-19.5,21.7l1.47,2.64c9.57-2.15,17.39-5.38,23.46-9.67
		c13.01-9.18,19.64-27.01,19.91-53.42c4.24-0.17,8.19-0.52,11.86-1.04v-2.93c-1.17,0-2.35,0-3.52,0c-2.83,0-5.6-0.18-8.31-0.49
		v-73.76h113.47v76.23c-0.39,5.08-2.4,9.34-6.01,12.75c-3.62,3.42-7.87,5.13-12.75,5.13h-3.81v2.93h63.92v-2.93h-3.52
		C769.6,668.09,765.15,666.28,761.54,662.66z"/>
</g>
<text transform="matrix(1 0 0 1 344.9863 523.3994)" class="st0 st1 st2">Mehar hospitality</text>
</svg>
